<svg xmlns="http://www.w3.org/2000/svg" viewBox="0 0 520 720" role="img" aria-labelledby="title desc">
  <title id="title">Жинка</title>
  <desc id="desc">Стилизованное фото девушки в красном топе на тёплом светлом фоне.</desc>
  <defs>
    <linearGradient id="paper" x1="0" x2="1" y1="0" y2="1">
      <stop offset="0" stop-color="#fff9d9"/>
      <stop offset="1" stop-color="#f1e8bf"/>
    </linearGradient>
    <linearGradient id="top" x1="0" x2="1" y1="0" y2="1">
      <stop offset="0" stop-color="#ee3f86"/>
      <stop offset="1" stop-color="#a4154a"/>
    </linearGradient>
    <filter id="shadow" x="-20%" y="-20%" width="140%" height="140%">
      <feDropShadow dx="0" dy="18" stdDeviation="18" flood-color="#3d241b" flood-opacity=".22"/>
    </filter>
  </defs>
  <rect width="520" height="720" rx="44" fill="url(#paper)"/>
  <path d="M72 118c91-74 258-78 361 18" fill="none" stroke="#c4488d" stroke-width="6" stroke-linecap="round" opacity=".22"/>
  <g filter="url(#shadow)">
    <path d="M266 96c-118 4-163 122-142 258 10 65 20 121-21 205 87 57 261 78 344 7-49-94-33-157-26-232C435 194 377 92 266 96Z" fill="#2b201e"/>
    <ellipse cx="264" cy="239" rx="82" ry="100" fill="#f3c7aa"/>
    <path d="M187 209c26-65 74-94 142-78 37 31 54 78 52 143 29-103-12-183-106-195-77-10-128 41-88 130Z" fill="#241715" opacity=".94"/>
    <path d="M188 370c68-45 159-49 233 11 39 31 58 108 44 225-126 60-282 47-385-14 1-93 36-176 108-222Z" fill="url(#top)"/>
    <path d="M421 380c29 53 45 124 44 226-78 38-168 48-251 32Z" fill="#2a191c" opacity=".92"/>
    <path d="M225 268c22 18 57 18 82 0" fill="none" stroke="#9f604f" stroke-width="4" stroke-linecap="round" opacity=".28"/>
    <circle cx="238" cy="230" r="5" fill="#2b201e" opacity=".45"/>
    <circle cx="304" cy="230" r="5" fill="#2b201e" opacity=".45"/>
  </g>
</svg>
