<svg xmlns="http://www.w3.org/2000/svg" viewBox="0 0 520 720" role="img" aria-labelledby="title desc">
  <title id="title">Муженёчек</title>
  <desc id="desc">Стилизованное фото мужчины в куртке на тёплом светлом фоне.</desc>
  <defs>
    <linearGradient id="paper" x1="0" x2="1" y1="0" y2="1">
      <stop offset="0" stop-color="#fff9d9"/>
      <stop offset="1" stop-color="#f1e8bf"/>
    </linearGradient>
    <linearGradient id="jacket" x1="0" x2="1" y1="0" y2="1">
      <stop offset="0" stop-color="#777176"/>
      <stop offset=".55" stop-color="#26252b"/>
      <stop offset="1" stop-color="#111216"/>
    </linearGradient>
    <filter id="shadow" x="-20%" y="-20%" width="140%" height="140%">
      <feDropShadow dx="0" dy="18" stdDeviation="18" flood-color="#3d241b" flood-opacity=".22"/>
    </filter>
  </defs>
  <rect width="520" height="720" rx="44" fill="url(#paper)"/>
  <path d="M80 607c86-75 257-81 357-9" fill="none" stroke="#1d88a4" stroke-width="7" stroke-linecap="round" opacity=".28"/>
  <g filter="url(#shadow)">
    <path d="M175 230c-15-83 42-145 114-139 66 6 115 66 101 143-51-33-147-36-215-4Z" fill="#2b201e"/>
    <ellipse cx="281" cy="234" rx="75" ry="88" fill="#f0c2a4"/>
    <path d="M176 219c40-86 111-112 202-34-18-62-68-94-131-85-64 9-99 58-71 119Z" fill="#211716"/>
    <path d="M123 384c87-81 244-87 326 14 46 57 57 137 45 221-136 79-334 76-450-9-4-90 27-178 79-226Z" fill="url(#jacket)"/>
    <path d="M64 428c48-49 102-78 169-92L116 604c-29-28-48-93-52-176Z" fill="#f7f7f1"/>
    <path d="M334 344c57 18 100 51 130 94l-90 163-114-246Z" fill="#f7f7f1"/>
    <path d="M122 611c37-74 78-152 111-275 18 132 58 221 113 307-79 22-155 13-224-32Z" fill="#27262d"/>
    <circle cx="254" cy="232" r="5" fill="#2b201e" opacity=".55"/>
    <circle cx="314" cy="232" r="5" fill="#2b201e" opacity=".55"/>
    <path d="M259 273c19 14 48 12 67-3" fill="none" stroke="#935a49" stroke-width="4" stroke-linecap="round" opacity=".3"/>
  </g>
</svg>
